<svg xmlns="http://www.w3.org/2000/svg" width="21.151" height="21" viewBox="0 0 21.151 21">
  <g id="Group_1" data-name="Group 1" transform="translate(1.141 1)">
    <path id="Path_1" data-name="Path 1" d="M3,7.8a7.453,7.453,0,0,1,.327-3.162A3,3,0,0,1,4.638,3.327,7.453,7.453,0,0,1,7.8,3H11L21,13v3.2a7.453,7.453,0,0,1-.327,3.162,3,3,0,0,1-1.311,1.311A7.453,7.453,0,0,1,16.2,21H7.8a7.453,7.453,0,0,1-3.162-.327,3,3,0,0,1-1.311-1.311A7.453,7.453,0,0,1,3,16.2Z" transform="translate(-3 -2)" fill="#fff" opacity="0.12"/>
    <path id="Path_2" data-name="Path 2" d="M11,3H7.8a7.453,7.453,0,0,0-3.162.327A3,3,0,0,0,3.327,4.638,7.453,7.453,0,0,0,3,7.8v8.4a7.453,7.453,0,0,0,.327,3.162,3,3,0,0,0,1.311,1.311A7.453,7.453,0,0,0,7.8,21h8.4a7.453,7.453,0,0,0,3.162-.327,3,3,0,0,0,1.311-1.311A7.453,7.453,0,0,0,21,16.2V13M12,8h4v4m-.5-8.5V2m3.939,2.561L20.5,3.5m.01,5h1.5M3,13.347A13.1,13.1,0,0,0,5,13.5,12.984,12.984,0,0,0,15.62,8" transform="translate(-3 -2)" fill="none" stroke="#fff" stroke-linecap="round" stroke-linejoin="round" stroke-width="2"/>
  </g>
</svg>
