<svg xmlns="http://www.w3.org/2000/svg" width="22" height="22" viewBox="0 0 22 22">
  <g id="Group_14" data-name="Group 14" transform="translate(-1 -1)">
    <g id="Group_13" data-name="Group 13" opacity="0.12">
      <path id="Path_5" data-name="Path 5" d="M18.684,19.438a10,10,0,0,1-13.367,0A4,4,0,0,1,9,17h6A4,4,0,0,1,18.684,19.438Z" fill="#fff"/>
      <path id="Path_6" data-name="Path 6" d="M12,13.5a4,4,0,1,0-4-4A4,4,0,0,0,12,13.5Z" fill="#fff"/>
    </g>
    <path id="Path_7" data-name="Path 7" d="M5.316,19.438A4,4,0,0,1,9,17h6a4,4,0,0,1,3.684,2.438M16,9.5a4,4,0,1,1-4-4A4,4,0,0,1,16,9.5ZM22,12A10,10,0,1,1,12,2,10,10,0,0,1,22,12Z" fill="none" stroke="#fff" stroke-linecap="round" stroke-linejoin="round" stroke-width="2"/>
  </g>
</svg>
