<svg width="140" viewBox="0 0 171.24 43.983" xmlns="http://www.w3.org/2000/svg"><g transform="translate(-695.14 -96.299)" data-name="Group 4"><g transform="translate(740.67 130.54)" data-name="Group 2"><g transform="translate(0)" fill="#fff" data-name="Group 1"><path transform="translate(-846.46 -207.66)" d="m850.08 207.66a3.643 3.643 0 0 1 3.616 3.784 3.625 3.625 0 1 1-7.231 0 3.644 3.644 0 0 1 3.615-3.784zm0 6.4a2.434 2.434 0 0 0 2.276-2.613 2.287 2.287 0 1 0-4.552 0 2.434 2.434 0 0 0 2.276 2.61z" data-name="Path 3"></path><path transform="translate(-864.52 -212.37)" d="M872.889,218.224a2.218,2.218,0,0,0,1.5.784c.384,0,.68-.167.68-.523,0-.753-2.65-.742-2.65-2.467,0-1.066.906-1.558,1.951-1.558.68,0,1.763.24,1.763,1.108v.554h-1.1v-.261c0-.251-.354-.376-.63-.376-.443,0-.749.167-.749.481,0,.836,2.67.669,2.67,2.446a1.719,1.719,0,0,1-1.931,1.631,2.7,2.7,0,0,1-2.089-.951Z" data-name="Path 4"></path><path transform="translate(-875.06 -207.94)" d="M887.974,209.429c0-.157-.079-.23-.217-.23h-.394V208.07h1.192c.463,0,.67.22.67.7v1.871c0,.261-.02.45-.02.45h.02a1.907,1.907,0,0,1,1.724-1.056c1.123,0,1.754.617,1.754,2.028v2.08a.2.2,0,0,0,.217.23h.394v1.118h-1.192c-.463,0-.66-.209-.66-.711v-2.446c0-.648-.167-1.087-.8-1.087a1.429,1.429,0,0,0-1.359,1.108,2.53,2.53,0,0,0-.079.69v2.446h-1.251Z" data-name="Path 5"></path><path transform="translate(-890.08 -212.37)" d="M911.832,216.573h.158v-.042c0-.763-.285-1.045-.926-1.045-.227,0-.67.063-.67.355v.282h-1.163v-.565c0-.993,1.32-1.1,1.842-1.1a1.888,1.888,0,0,1,2.167,2.122v1.986a.2.2,0,0,0,.217.23h.394v1.118h-1.123a.56.56,0,0,1-.641-.585c0-.136.01-.23.01-.23h-.02a1.707,1.707,0,0,1-3.231-.721C908.847,216.708,911.014,216.573,911.832,216.573Zm-.966,2.436c.67,0,1.143-.753,1.143-1.4v-.125h-.217c-.65,0-1.684.094-1.684.836A.687.687,0,0,0,910.866,219.008Z" data-name="Path 6"></path><path transform="translate(-909.08 -207.94)" d="M936.028,214.331h.7v-5.1h-.7v-1.16h2.621v1.16h-.7v5.1h.7v1.16h-2.621Z" data-name="Path 7"></path><path transform="translate(-916.52 -212.37)" d="M947.282,215.945c0-.156-.079-.23-.217-.23h-.394v-1.129h1.153c.443,0,.66.22.66.6v.157a1.546,1.546,0,0,1-.02.23h.02a1.925,1.925,0,0,1,1.773-1.108c1.113,0,1.753.617,1.753,2.028v2.08a.2.2,0,0,0,.217.23h.394v1.118H951.43c-.473,0-.67-.209-.67-.711v-2.446c0-.648-.158-1.087-.788-1.087a1.393,1.393,0,0,0-1.35,1.087,2.376,2.376,0,0,0-.1.711v2.446h-1.241Z" data-name="Path 8"></path><path transform="translate(-931.5 -207.94)" d="M970.375,210.035a1.588,1.588,0,0,1,1.448.648h.02s-.01-.136-.01-.314v-.941c0-.157-.079-.23-.217-.23h-.394V208.07h1.192c.463,0,.67.22.67.711v5.362a.2.2,0,0,0,.217.23h.385v1.118h-1.153c-.453,0-.621-.23-.621-.543v-.2h-.02a1.719,1.719,0,0,1-1.566.868c-1.36,0-2.237-1.139-2.237-2.791C968.089,211.133,969.045,210.035,970.375,210.035Zm1.487,2.78c0-.826-.4-1.641-1.241-1.641-.69,0-1.261.6-1.261,1.651,0,1.014.5,1.673,1.241,1.673C971.252,214.5,971.862,214,971.862,212.816Z" data-name="Path 9"></path><path transform="translate(-945.44 -212.65)" d="M988.645,216.228c0-.156-.079-.23-.217-.23h-.394v-1.129h1.192c.463,0,.66.22.66.7v2.456c0,.648.157,1.087.778,1.087.906,0,1.409-.847,1.409-1.8v-2.446h1.251v3.983a.2.2,0,0,0,.217.23h.394V220.2h-1.153c-.434,0-.66-.219-.66-.6v-.146c0-.125.01-.24.01-.24h-.02a1.891,1.891,0,0,1-1.734,1.108c-1.074,0-1.734-.575-1.734-2.028Z" data-name="Path 10"></path><path transform="translate(-960.18 -212.37)" d="M1009.714,218.224a2.218,2.218,0,0,0,1.5.784c.384,0,.68-.167.68-.523,0-.753-2.65-.742-2.65-2.467,0-1.066.907-1.558,1.95-1.558.68,0,1.764.24,1.764,1.108v.554h-1.1v-.261c0-.251-.355-.376-.631-.376-.443,0-.749.167-.749.481,0,.836,2.67.669,2.67,2.446a1.719,1.719,0,0,1-1.931,1.631,2.7,2.7,0,0,1-2.089-.951Z" data-name="Path 11"></path><path transform="translate(-970.76 -209.38)" d="M1024.9,212.652h-.65V211.6h.68v-1.453h1.222V211.6h1.142v1.056h-1.142v2.153a.913.913,0,0,0,.995,1,1.088,1.088,0,0,0,.227-.021v1.16a2.173,2.173,0,0,1-.384.031,1.873,1.873,0,0,1-2.089-2.007Z" data-name="Path 12"></path><path transform="translate(-979.28 -212.49)" d="M1037.047,216.063c0-.156-.079-.23-.217-.23h-.394V214.7h1.143c.443,0,.67.2.67.648v.314a2.568,2.568,0,0,1-.02.335h.02a1.755,1.755,0,0,1,1.6-1.369,1.515,1.515,0,0,1,.226.021v1.307a2.1,2.1,0,0,0-.3-.021,1.427,1.427,0,0,0-1.37,1.118,3.419,3.419,0,0,0-.108.868v2.111h-1.241Z" data-name="Path 13"></path><path transform="translate(-988.55 -212.65)" d="M1050.9,221.277a.906.906,0,0,0,.828-.68l.167-.408-1.675-4a.236.236,0,0,0-.266-.188h-.148v-1.129h.828a.615.615,0,0,1,.66.5l.985,2.665a5.489,5.489,0,0,1,.177.711h.02a6.839,6.839,0,0,1,.168-.711l.857-2.665a.625.625,0,0,1,.67-.5h.847V216h-.148a.25.25,0,0,0-.286.188l-1.8,4.819a1.912,1.912,0,0,1-1.813,1.39,1.815,1.815,0,0,1-1.271-.544l.483-.941A1.065,1.065,0,0,0,1050.9,221.277Z" data-name="Path 14"></path><path transform="translate(-1007.9 -207.66)" d="M1080.985,207.662c.9,0,2.65.4,2.65,1.662v.826h-1.172v-.418c0-.544-.837-.795-1.448-.795a2.27,2.27,0,0,0-2.237,2.5,2.457,2.457,0,0,0,2.276,2.624,2.926,2.926,0,0,0,2.118-.983l.68.983a3.8,3.8,0,0,1-2.818,1.275,3.638,3.638,0,0,1-3.6-3.9A3.585,3.585,0,0,1,1080.985,207.662Z" data-name="Path 15"></path><path transform="translate(-1024.2 -212.37)" d="m1103.5 214.46a2.791 2.791 0 1 1-2.749 2.791 2.712 2.712 0 0 1 2.749-2.791zm0 4.453a1.672 1.672 0 1 0-1.488-1.662 1.546 1.546 0 0 0 1.488 1.662z" data-name="Path 16"></path><path transform="translate(-1038.2 -212.37)" d="M1121.375,215.945c0-.156-.078-.23-.217-.23h-.394v-1.129h1.153c.444,0,.66.22.66.6v.157c0,.115-.01.23-.01.23h.02a1.871,1.871,0,0,1,1.626-1.108,1.411,1.411,0,0,1,1.468,1.1h.019a1.932,1.932,0,0,1,1.714-1.1c1.045,0,1.645.627,1.645,2.028v2.08a.2.2,0,0,0,.217.23h.384v1.118h-1.182c-.473,0-.67-.209-.67-.711V216.74c0-.606-.108-1.066-.69-1.066a1.354,1.354,0,0,0-1.2,1.223,2.465,2.465,0,0,0-.079.68v2.341h-1.251V216.74c0-.575-.079-1.066-.68-1.066-.63,0-1.054.554-1.212,1.233a2.9,2.9,0,0,0-.079.669v2.341h-1.241Z" data-name="Path 17"></path><path transform="translate(-1059.8 -212.37)" d="M1152.258,215.945c0-.156-.079-.23-.217-.23h-.394v-1.129h1.113c.463,0,.63.22.63.512v.209h.02a1.761,1.761,0,0,1,1.6-.847c1.36,0,2.236,1.14,2.236,2.791,0,1.694-.985,2.791-2.305,2.791a1.728,1.728,0,0,1-1.438-.7h-.02s.02.188.02.46v2.206h-1.241Zm2.453,2.979c.69,0,1.271-.6,1.271-1.652,0-1.014-.512-1.672-1.251-1.672-.65,0-1.261.5-1.261,1.683C1153.47,218.109,1153.884,218.925,1154.711,218.925Z" data-name="Path 18"></path><path transform="translate(-1073.8 -207.94)" d="M1172.235,209.429c0-.157-.079-.23-.217-.23h-.394V208.07h1.192c.463,0,.67.22.67.711v5.362a.2.2,0,0,0,.217.23h.384v1.118h-1.182c-.473,0-.67-.209-.67-.711Z" data-name="Path 19"></path><path transform="translate(-1080.6 -207.94)" d="M1181.994,211.519c0-.157-.078-.23-.216-.23h-.395v-1.129h1.192c.463,0,.66.22.66.711v3.272a.2.2,0,0,0,.217.23h.394v1.118h-1.192c-.463,0-.661-.209-.661-.711Zm.06-3.449h1.084v1.223h-1.084Z" data-name="Path 20"></path><path transform="translate(-1087.6 -212.37)" d="M1194.422,216.573h.157v-.042c0-.763-.285-1.045-.926-1.045-.227,0-.67.063-.67.355v.282h-1.163v-.565c0-.993,1.32-1.1,1.843-1.1a1.888,1.888,0,0,1,2.167,2.122v1.986a.2.2,0,0,0,.217.23h.394v1.118h-1.123a.559.559,0,0,1-.641-.585c0-.136.01-.23.01-.23h-.019a1.707,1.707,0,0,1-3.231-.721C1191.437,216.708,1193.6,216.573,1194.422,216.573Zm-.965,2.436c.67,0,1.143-.753,1.143-1.4v-.125h-.217c-.65,0-1.685.094-1.685.836A.687.687,0,0,0,1193.457,219.008Z" data-name="Path 21"></path><path transform="translate(-1100.2 -212.37)" d="M1209.994,215.945c0-.156-.079-.23-.217-.23h-.394v-1.129h1.153c.444,0,.66.22.66.6v.157a1.546,1.546,0,0,1-.02.23h.02a1.925,1.925,0,0,1,1.773-1.108c1.113,0,1.753.617,1.753,2.028v2.08a.2.2,0,0,0,.217.23h.394v1.118h-1.192c-.473,0-.67-.209-.67-.711v-2.446c0-.648-.158-1.087-.789-1.087a1.394,1.394,0,0,0-1.35,1.087,2.38,2.38,0,0,0-.1.711v2.446h-1.241Z" data-name="Path 22"></path><path transform="translate(-1115.2 -212.37)" d="M1233.55,214.461c.65,0,1.823.282,1.823,1.2v.627h-1.1V216c0-.293-.414-.418-.719-.418a1.657,1.657,0,0,0,.079,3.3,2.228,2.228,0,0,0,1.488-.721l.522.92a2.817,2.817,0,0,1-2.118.962,2.792,2.792,0,0,1,.029-5.582Z" data-name="Path 23"></path><path transform="translate(-1127.5 -212.37)" d="M1250.972,214.461a2.258,2.258,0,0,1,2.226,2.53c0,.157-.03.491-.03.491H1249.7a1.477,1.477,0,0,0,1.507,1.432,2.225,2.225,0,0,0,1.409-.6l.522.92a2.972,2.972,0,0,1-2.02.805,2.655,2.655,0,0,1-2.7-2.791A2.561,2.561,0,0,1,1250.972,214.461Zm.946,2.1a1.01,1.01,0,0,0-.946-1.076,1.225,1.225,0,0,0-1.232,1.076Z" data-name="Path 24"></path></g></g><path transform="translate(-102.03 -12.47)" d="m853.29 114.31a11.934 11.934 0 0 1 12.211 12.179c0 7.007-5.159 12.479-12.211 12.479s-12.211-5.472-12.211-12.479a11.934 11.934 0 0 1 12.211-12.179zm0 19.153c3.4 0 6.138-3 6.138-6.974 0-3.8-2.743-6.673-6.138-6.673s-6.138 2.87-6.138 6.673c0 3.971 2.744 6.974 6.138 6.974z" fill="#fff" data-name="Path 25"></path><path transform="translate(-162.96 -13.372)" d="m928.23 134.46h2.449v-13.847h-2.449v-5.005h10.415v5.005h-2.449v13.847h2.449v5.005h-10.415z" fill="#fff" data-name="Path 26"></path><path transform="translate(-191.34 -12.47)" d="m980.9 114.31c2.775 0 8.946 1.1 8.946 5.572v3.136h-5.224v-1.3c0-1.368-2.09-1.9-3.592-1.9-3.4 0-6.138 2.236-6.138 6.573 0 3.9 2.84 7.074 6.269 7.074a9.444 9.444 0 0 0 6.661-3.037l2.971 4.271a13.307 13.307 0 0 1-9.73 4.271c-7.379 0-12.244-5.406-12.244-12.58a11.8 11.8 0 0 1 12.081-12.08z" fill="#fff" data-name="Path 27"></path><g transform="translate(695.14 96.299)" fill="#fff" data-name="Group 3"><path transform="translate(-695.14 -96.299)" d="M714.656,96.3a.106.106,0,0,1-.094,0c-8.555,8.042-19.42,5.785-19.421,5.785.044.009.1,5.172.117,5.48.585,8.73,2.829,18.054,8.282,24.762,1.463,1.8,7.341,6.586,11.069,7.715,3.728-1.129,9.607-5.915,11.069-7.715,5.45-6.7,7.7-16.024,8.282-24.762.021-.307.073-5.471.117-5.48C734.076,102.084,723.212,104.341,714.656,96.3Zm9.141,34.427a24.012,24.012,0,0,1-9.188,6.777,25.2,25.2,0,0,1-12.815-12.361,39.055,39.055,0,0,1-3.017-9.151c-.193-.907-1.524-11.255-1.22-11.242A25.31,25.31,0,0,0,714.609,99.4a25.31,25.31,0,0,0,17.052,5.345c.175-.008-.667,8.524-.8,9.321a41.634,41.634,0,0,1-2.719,9.657A27.727,27.727,0,0,1,723.8,130.726Z" data-name="Path 28"></path><path transform="translate(-707.57 -111.39)" d="M727.042,118.085a28.083,28.083,0,0,1-14.117,4.65,53.868,53.868,0,0,0,1.879,10.882,29.218,29.218,0,0,0,5.176,10.4,32.723,32.723,0,0,0,7.063,5.361,32.73,32.73,0,0,0,7.064-5.361c4.964-6.105,6.585-14.861,7.06-21.277A28.046,28.046,0,0,1,727.042,118.085ZM721.866,141.2l-.462.624.065-.779c.259-3.131-3.262-9.144-3.3-9.2l-.273-.464.515.127c1.949.479,4.351,2.579,5.041,3.211a26.818,26.818,0,0,1,13.681-9.994l1.979-.524-1.823.945C731.631,128.071,721.963,141.066,721.866,141.2Z" data-name="Path 29"></path></g></g></svg>