<svg xmlns="http://www.w3.org/2000/svg" width="20" height="20" viewBox="0 0 20 20">
  <g id="Group_13" data-name="Group 13" transform="translate(-2 -2)">
    <path id="Path_5" data-name="Path 5" d="M3,7.714A7.462,7.462,0,0,1,3.3,4.7,3,3,0,0,1,4.7,3.3,7.462,7.462,0,0,1,7.714,3h8.571a7.462,7.462,0,0,1,3.016.3,3,3,0,0,1,1.4,1.4A7.462,7.462,0,0,1,21,7.714c0,2.132,0,3.2-.4,4.021A4,4,0,0,1,18.736,13.6c-.823.4-1.889.4-4.021.4H9.286c-2.132,0-3.2,0-4.021-.4A4,4,0,0,1,3.4,11.736C3,10.913,3,9.847,3,7.714Z" fill="#fff" opacity="0.12"/>
    <path id="Path_6" data-name="Path 6" d="M20,13v4.8a4.968,4.968,0,0,1-.218,2.108,2,2,0,0,1-.874.874A4.968,4.968,0,0,1,16.8,21H7.2a4.968,4.968,0,0,1-2.108-.218,2,2,0,0,1-.874-.874A4.969,4.969,0,0,1,4,17.8V13m5-3h6M9.286,14h5.429c2.132,0,3.2,0,4.021-.4A4,4,0,0,0,20.6,11.736c.4-.823.4-1.889.4-4.021A7.462,7.462,0,0,0,20.7,4.7a3,3,0,0,0-1.4-1.4A7.462,7.462,0,0,0,16.286,3H7.714A7.462,7.462,0,0,0,4.7,3.3,3,3,0,0,0,3.3,4.7,7.462,7.462,0,0,0,3,7.714c0,2.132,0,3.2.4,4.021A4,4,0,0,0,5.264,13.6C6.087,14,7.153,14,9.286,14Z" fill="none" stroke="#fff" stroke-linecap="round" stroke-linejoin="round" stroke-width="2"/>
  </g>
</svg>
