<svg xmlns="http://www.w3.org/2000/svg" width="18" height="22" viewBox="0 0 18 22">
  <g id="Group_15" data-name="Group 15" transform="translate(-3 -1)">
    <path id="Path_8" data-name="Path 8" d="M4,6.8a7.453,7.453,0,0,1,.327-3.162A3,3,0,0,1,5.638,2.327,7.453,7.453,0,0,1,8.8,2h6.4a7.453,7.453,0,0,1,3.162.327,3,3,0,0,1,1.311,1.311A7.453,7.453,0,0,1,20,6.8V17.2a7.453,7.453,0,0,1-.327,3.162,3,3,0,0,1-1.311,1.311A7.453,7.453,0,0,1,15.2,22H8.8a7.453,7.453,0,0,1-3.162-.327,3,3,0,0,1-1.311-1.311A7.453,7.453,0,0,1,4,17.2Z" fill="#fff" opacity="0.12"/>
    <path id="Path_9" data-name="Path 9" d="M14,11H8m2,4H8m8-8H8m12-.2V17.2a7.453,7.453,0,0,1-.327,3.162,3,3,0,0,1-1.311,1.311A7.453,7.453,0,0,1,15.2,22H8.8a7.453,7.453,0,0,1-3.162-.327,3,3,0,0,1-1.311-1.311A7.453,7.453,0,0,1,4,17.2V6.8a7.453,7.453,0,0,1,.327-3.162A3,3,0,0,1,5.638,2.327,7.453,7.453,0,0,1,8.8,2h6.4a7.453,7.453,0,0,1,3.162.327,3,3,0,0,1,1.311,1.311A7.453,7.453,0,0,1,20,6.8Z" fill="none" stroke="#fff" stroke-linecap="round" stroke-linejoin="round" stroke-width="2"/>
  </g>
</svg>
