<svg xmlns="http://www.w3.org/2000/svg" width="22.829" height="22.249" viewBox="0 0 22.829 22.249">
    <g id="Group_12" data-name="Group 12" transform="translate(-2 -2)">
      <path id="Path_3" data-name="Path 3" d="M15,3h1.2c1.68,0,2.52,0,3.162.368a3.213,3.213,0,0,1,1.311,1.475A9.366,9.366,0,0,1,21,8.4v9.449a9.366,9.366,0,0,1-.327,3.557,3.212,3.212,0,0,1-1.311,1.475c-.642.368-1.482.368-3.162.368H15" transform="translate(2.829)" fill="none" stroke="#fff" stroke-linecap="round" stroke-linejoin="round" stroke-width="2" opacity="0.4"/>
      <path id="Path_4" data-name="Path 4" d="M10,7l5,6.124m0,0-5,6.124m5-6.124H3" transform="translate(0 0)" fill="none" stroke="#fff" stroke-linecap="round" stroke-linejoin="round" stroke-width="2"/>
    </g>
  </svg>
  