<svg xmlns="http://www.w3.org/2000/svg" width="21.981" height="21.981" viewBox="0 0 21.981 21.981">
  <g id="Group_16" data-name="Group 16" transform="translate(-0.993 -1.026)">
    <path id="Path_10" data-name="Path 10" d="M14,2.8a1.133,1.133,0,0,1,.061-.528.53.53,0,0,1,.243-.22A1.013,1.013,0,0,1,14.8,2.04,8,8,0,0,1,21.96,9.2a1.013,1.013,0,0,1-.012.494.53.53,0,0,1-.22.243A1.134,1.134,0,0,1,21.2,10H14.8a1.242,1.242,0,0,1-.527-.055.5.5,0,0,1-.219-.219A1.242,1.242,0,0,1,14,9.2Z" fill="#fff" opacity="0.12"/>
    <path id="Path_11" data-name="Path 11" d="M17.2,14a1.134,1.134,0,0,1,.528.061.531.531,0,0,1,.22.243,1.012,1.012,0,0,1,.012.494A8,8,0,1,1,9.2,6.04a1.013,1.013,0,0,1,.494.012.531.531,0,0,1,.243.22A1.133,1.133,0,0,1,10,6.8v6.4a1.242,1.242,0,0,0,.054.527.5.5,0,0,0,.219.219A1.242,1.242,0,0,0,10.8,14Z" fill="none" stroke="#fff" stroke-linecap="round" stroke-linejoin="round" stroke-width="2"/>
    <path id="Path_12" data-name="Path 12" d="M14,2.8a1.133,1.133,0,0,1,.061-.528.53.53,0,0,1,.243-.22A1.013,1.013,0,0,1,14.8,2.04,8,8,0,0,1,21.96,9.2a1.013,1.013,0,0,1-.012.494.53.53,0,0,1-.22.243A1.134,1.134,0,0,1,21.2,10H14.8a1.242,1.242,0,0,1-.527-.055.5.5,0,0,1-.219-.219A1.242,1.242,0,0,1,14,9.2Z" fill="none" stroke="#fff" stroke-linecap="round" stroke-linejoin="round" stroke-width="2"/>
  </g>
</svg>
