<svg xmlns="http://www.w3.org/2000/svg" width="22.683" height="21.882" viewBox="0 0 22.683 21.882">
  <g id="Group_12" data-name="Group 12" transform="translate(-0.658 -1.059)">
    <path id="Path_3" data-name="Path 3" d="M12.358,2.179a1.088,1.088,0,0,0-.266-.111.5.5,0,0,0-.184,0,1.088,1.088,0,0,0-.266.111L2,7l9.642,4.821a1.087,1.087,0,0,0,.266.111.5.5,0,0,0,.184,0,1.087,1.087,0,0,0,.266-.111L22,7Z" fill="#fff" opacity="0.12"/>
    <path id="Path_4" data-name="Path 4" d="M2,12l9.642,4.821a1.087,1.087,0,0,0,.266.111.5.5,0,0,0,.184,0,1.087,1.087,0,0,0,.266-.111L22,12M2,17l9.642,4.821a1.087,1.087,0,0,0,.266.111.5.5,0,0,0,.184,0,1.087,1.087,0,0,0,.266-.111L22,17M2,7l9.642-4.821a1.088,1.088,0,0,1,.266-.111.5.5,0,0,1,.184,0,1.088,1.088,0,0,1,.266.111L22,7l-9.642,4.821a1.087,1.087,0,0,1-.266.111.5.5,0,0,1-.184,0,1.087,1.087,0,0,1-.266-.111Z" fill="none" stroke="#fff" stroke-linecap="round" stroke-linejoin="round" stroke-width="2"/>
  </g>
</svg>
